<?xml version="1.0" encoding="UTF-8"?>
<svg id="Layer_1" xmlns="http://www.w3.org/2000/svg" version="1.1" viewBox="0 0 152 152">
  <!-- Generator: Adobe Illustrator 29.2.1, SVG Export Plug-In . SVG Version: 2.1.0 Build 116)  -->
  <defs>
    <style>
      .st0 {
        fill: #585651;
      }
    </style>
  </defs>
  <rect class="st0" x="34" y="33.1" width="11.3" height="80"/>
  <rect class="st0" x="107.2" y="33.1" width="11.3" height="80"/>
  <polygon class="st0" points="52 41.3 52 57.4 71.2 76.6 52 76.6 52 87.9 100.5 87.9 100.5 76.6 81.4 76.6 100.5 57.4 100.5 41.3 76.3 65.6 52 41.3"/>
  <path class="st0" d="M76,1C34.6,1,1,34.6,1,76s33.6,75,75,75,75-33.6,75-75S117.4,1,76,1ZM139.7,76c0,35.1-28.6,63.7-63.7,63.7S12.3,111.1,12.3,76,40.9,12.3,76,12.3s63.7,28.6,63.7,63.7Z"/>
</svg>