<?xml version="1.0" encoding="UTF-8"?>
<svg id="Layer_1" xmlns="http://www.w3.org/2000/svg" version="1.1" viewBox="0 0 270 190">
  <!-- Generator: Adobe Illustrator 29.2.1, SVG Export Plug-In . SVG Version: 2.1.0 Build 116)  -->
  <defs>
    <style>
      .st0 {
        fill: #fff;
      }
    </style>
  </defs>
  <g>
    <rect class="st0" x="97.5" y="28.4" width="9.7" height="68.1"/>
    <rect class="st0" x="159.9" y="28.4" width="9.7" height="68.1"/>
    <polygon class="st0" points="112.9 35.5 112.9 49.1 129.2 65.4 112.9 65.4 112.9 75.1 154.2 75.1 154.2 65.4 137.8 65.4 154.2 49.1 154.2 35.5 133.5 56.1 112.9 35.5"/>
    <path class="st0" d="M133.3,1.1c-35.2,0-63.8,28.6-63.8,63.8s28.6,63.8,63.8,63.8,63.8-28.6,63.8-63.8S168.5,1.1,133.3,1.1ZM187.5,65c0,29.9-24.3,54.2-54.2,54.2s-54.2-24.3-54.2-54.2,24.3-54.2,54.2-54.2,54.2,24.3,54.2,54.2Z"/>
  </g>
  <g>
    <path class="st0" d="M50.3,143v45.1h-9v-29.3l-12.1,19.7h-6.9l-12.1-19.7v29.3H1.1v-45.1h10.3l14.3,23.9,14.3-23.9h10.2Z"/>
    <path class="st0" d="M67.7,150.3v11.3h15.2v7.2h-15.2v12h17.1v7.4h-26.2v-45.2h26.2v7.4h-17.1Z"/>
    <path class="st0" d="M98.2,187c-2.5-1.1-4.5-2.6-6-4.7-1.5-2-2.2-4.4-2.3-7.2h9.7c.1,1.9.8,3.3,2,4.4,1.2,1.1,2.8,1.6,4.9,1.6s3.8-.5,5-1.5c1.2-1,1.8-2.3,1.8-4s-.4-2.4-1.2-3.3c-.8-.9-1.8-1.5-3.1-2-1.2-.5-2.9-1-5.1-1.6-2.9-.9-5.3-1.7-7.1-2.6-1.8-.8-3.4-2.1-4.7-3.8-1.3-1.7-2-4-2-6.8s.7-5,2-7c1.3-2,3.2-3.5,5.6-4.6,2.4-1.1,5.2-1.6,8.3-1.6,4.7,0,8.4,1.1,11.3,3.4,2.9,2.3,4.5,5.4,4.8,9.5h-10c0-1.6-.7-2.8-2-3.8-1.2-1-2.9-1.5-4.9-1.5s-3.2.5-4.2,1.4c-1.1.9-1.6,2.2-1.6,3.9s.4,2.2,1.2,3c.8.8,1.8,1.4,3,1.9,1.2.5,2.9,1.1,5,1.7,2.9.9,5.3,1.7,7.2,2.6,1.9.9,3.4,2.2,4.8,3.9,1.3,1.7,2,4,2,6.8s-.6,4.7-1.9,6.7c-1.2,2.1-3.1,3.7-5.5,4.9-2.4,1.2-5.3,1.8-8.6,1.8s-6-.5-8.5-1.6Z"/>
    <path class="st0" d="M154.9,179.5h-18l-3,8.6h-9.5l16.2-45.2h10.5l16.2,45.2h-9.6l-3-8.6ZM152.5,172.3l-6.5-18.9-6.5,18.9h13.1Z"/>
    <path class="st0" d="M197.1,188.1l-16.4-20.1v20.1h-9v-45.1h9v20.2l16.4-20.2h10.9l-18.6,22.4,19.1,22.7h-11.4Z"/>
    <path class="st0" d="M241.8,179.5h-18l-3,8.6h-9.5l16.2-45.2h10.5l16.2,45.2h-9.6l-3-8.6ZM239.3,172.3l-6.5-18.9-6.5,18.9h13.1Z"/>
    <path class="st0" d="M267.5,143v45.1h-9v-45.1h9Z"/>
  </g>
</svg>